<svg xmlns="http://www.w3.org/2000/svg" xmlns:xlink="http://www.w3.org/1999/xlink" width="96" height="96" viewBox="0 0 96 96">
    <defs>
        <path id="b" d="M12 0h36l24 24v60c0 6.627-5.373 12-12 12H12C5.373 96 0 90.627 0 84V12C0 5.373 5.373 0 12 0z"/>
        <path id="a" d="M51 78a3 3 0 0 1 0 6H15a3 3 0 0 1 0-6h36zM39 66a3 3 0 0 1 0 6H15a3 3 0 0 1 0-6h24zm18-12a3 3 0 0 1 0 6H15a3 3 0 0 1 0-6h42zM30 12a6 6 0 0 1 6 6v12a6 6 0 0 1-6 6H18a6 6 0 0 1-6-6V18a6 6 0 0 1 6-6h12z"/>
        <mask id="d" width="48" height="72" x="0" y="0" fill="#fff">
            <use xlink:href="#a"/>
        </mask>
    </defs>
    <g fill="none" fill-rule="evenodd" transform="translate(12)">
        <mask id="c" fill="#fff">
            <use xlink:href="#b"/>
        </mask>
        <path stroke="#DFE3E8" d="M71.5 24.207L47.793.5H12C5.649.5.5 5.649.5 12v72c0 6.351 5.149 11.5 11.5 11.5h48c6.351 0 11.5-5.149 11.5-11.5V24.207z"/>
        <g stroke="#DFE3E8" stroke-dasharray="3" stroke-width="2" mask="url(#c)">
            <use mask="url(#d)" xlink:href="#a"/>
        </g>
        <path stroke="#DFE3E8" d="M47.5-.5h25v25H60c-6.904 0-12.5-5.596-12.5-12.5V-.5z" mask="url(#c)"/>
    </g>
</svg>
