<svg xmlns="http://www.w3.org/2000/svg" width="32" height="32" viewBox="0 0 32 32">
  <g fill="none" fill-rule="evenodd">
    <circle cx="8" cy="8" r="5" fill="#F9D86A"/>
    <circle cx="5" cy="16" r="5" fill="#96D488"/>
    <circle cx="8" cy="24" r="5" fill="#66B289"/>
    <circle cx="16" cy="27" r="5" fill="#42A1FF"/>
    <circle cx="24" cy="24" r="5" fill="#2D83D9"/>
    <circle cx="27" cy="16" r="5" fill="#A395DB"/>
    <circle cx="24" cy="8" r="5" fill="#F69A81"/>
    <path fill="#F06A41" d="M16,0 C18.7614237,0 21,2.23857625 21,5 C21,7.76142375 18.7614237,10 16,10 C14.8345003,10 13.76214,9.60122299 12.9119179,8.93266786 C12.9701457,8.6308215 13,8.31889717 13,8 C13,6.40407595 12.2522951,4.98278773 11.0880821,4.06733214 C11.5240073,1.75139609 13.5574734,0 16,0 Z"/>
  </g>
</svg>
